<svg width="24" height="24" viewBox="0 0 24 24" fill="none" xmlns="http://www.w3.org/2000/svg">
<g clip-path="url(#clip0_347_617)">
<path d="M23 24C23.5523 24 24 23.5523 24 23V1C24 0.447715 23.5523 0 23 0H1C0.447715 0 0 0.447716 0 1V23C0 23.5523 0.447716 24 1 24H12.8184V14.706H9.6912V11.0844H12.8184V8.412C12.8184 5.3112 14.712 3.624 17.478 3.624C18.8028 3.624 19.9404 3.7224 20.2728 3.7668V7.0068H18.3552C16.8504 7.0068 16.56 7.722 16.56 8.7708V11.0832H20.1468L19.6788 14.7048H16.5588V24H23Z" fill="#F4F7FB"/>
</g>
<defs>
<clipPath id="clip0_347_617">
<rect width="24" height="24" fill="white"/>
</clipPath>
</defs>
</svg>
