<svg width="24" height="24" viewBox="0 0 24 24" fill="none" xmlns="http://www.w3.org/2000/svg">
<g clip-path="url(#clip0_347_632)">
<path fill-rule="evenodd" clip-rule="evenodd" d="M24 1C24 0.447715 23.5523 0 23 0H1C0.447715 0 0 0.447716 0 1V23C0 23.5523 0.447716 24 1 24H23C23.5523 24 24 23.5523 24 23V1ZM5.51646 5.29764C6.91272 5.26268 8.36468 5.22633 9.53169 5.27005C12.1019 5.35601 13.0684 6.86014 13.1108 10.599C13.1427 12.7048 13.1108 18.75 13.1108 18.75H10.3283C10.3283 16.505 10.332 15.0559 10.3348 14.0043C10.3386 12.5801 10.3404 11.8843 10.3283 10.9285C10.2963 9.46731 9.98838 8.76538 9.14933 8.63645C8.25719 8.4932 5.78261 8.6078 5.78261 8.6078V18.75H3V5.34168C3.75706 5.34168 4.62553 5.31994 5.51646 5.29764ZM16.5211 5.25H18.729V7.79932H21V10.0287H18.729V12.675H16.5211V10.0287H14.25V7.79932H16.5211V5.25Z" fill="#F4F7FB"/>
</g>
<defs>
<clipPath id="clip0_347_632">
<rect width="24" height="24" rx="1" fill="white"/>
</clipPath>
</defs>
</svg>
