<svg width="24" height="24" viewBox="0 0 24 24" fill="none" xmlns="http://www.w3.org/2000/svg">
<g clip-path="url(#clip0_347_627)">
<path fill-rule="evenodd" clip-rule="evenodd" d="M23 24C23.5523 24 24 23.5523 24 23V1C24 0.447715 23.5523 0 23 0H0V24H23ZM18.468 9.123C18.468 8.979 18.468 8.832 18.459 8.691C19.11 8.22 19.677 7.629 20.13 6.963C19.53 7.224 18.882 7.41 18.21 7.482C18.903 7.071 19.425 6.42 19.674 5.649C19.032 6.027 18.312 6.309 17.559 6.45C16.95 5.802 16.086 5.4 15.126 5.4C13.092 5.4 11.4 7.233 11.871 9.498C10.5456 9.43186 9.249 9.08757 8.06539 8.4875C6.88179 7.88743 5.83771 7.04501 5.001 6.015C4.71 6.507 4.548 7.074 4.548 7.695C4.54837 8.24356 4.68409 8.78355 4.94313 9.26709C5.20217 9.75063 5.57653 10.1628 6.033 10.467C5.49 10.446 4.971 10.293 4.53 10.044V10.086C4.52846 10.8552 4.79327 11.6012 5.27945 12.1973C5.76562 12.7934 6.44318 13.2029 7.197 13.356C6.669 13.491 6.207 13.491 5.694 13.416C6.114 14.736 7.344 15.696 8.808 15.726C7.665 16.62 6.231 17.148 4.671 17.148C4.395 17.148 4.137 17.136 3.867 17.106C5.343 18.051 7.095 18.6 8.985 18.6C15.114 18.6 18.468 13.527 18.468 9.123Z" fill="#F4F7FB"/>
</g>
<defs>
<clipPath id="clip0_347_627">
<rect width="24" height="24" fill="white"/>
</clipPath>
</defs>
</svg>
