<svg width="52" height="66" viewBox="0 0 52 66" fill="none" xmlns="http://www.w3.org/2000/svg">
<ellipse cx="22.5696" cy="7.48053" rx="7.2659" ry="7.14679" fill="#2061AA"/>
<path d="M13.7325 25.1165C15.1971 26.5571 17.4462 26.7138 19.4306 26.1825C20.4188 25.9179 21.4586 25.7767 22.532 25.7767C23.6382 25.7767 24.7088 25.9267 25.724 26.2071C27.7225 26.7592 29.9973 26.6137 31.4754 25.1598L32.3761 24.2739C34.2878 22.3935 34.11 19.2189 31.6737 18.0985C30.1884 17.4154 28.611 16.8936 26.9649 16.5561C26.084 16.3754 25.1914 16.7387 24.6247 17.4369C23.5945 18.7062 21.6449 18.6907 20.6147 17.4214C20.0473 16.7224 19.1503 16.3484 18.2669 16.5223C16.6155 16.8475 15.032 17.3578 13.5399 18.0304C11.0852 19.1367 10.8957 22.3262 12.8152 24.2143L13.7325 25.1165Z" fill="#2061AA"/>
<path d="M39.442 37.3639C39.442 32.9117 37.6635 28.8681 34.7673 25.8829L38.0964 22.6187C41.8398 26.4406 44.1418 31.6378 44.1418 37.3639C44.1418 41.8794 42.7103 46.0659 40.2693 49.5085L49.5515 57.2078C51.8199 59.0894 51.9661 62.4772 49.8678 64.541C47.7696 66.6048 44.3253 66.4611 42.4124 64.2298L34.5348 55.0416C31.1017 57.3013 26.9734 58.6191 22.5323 58.6191C10.5977 58.6191 0.922852 49.1028 0.922852 37.3639C0.922852 31.5913 3.26234 26.3562 7.0597 22.5259L10.3885 25.7898C7.43845 28.7837 5.62264 32.8653 5.62264 37.3639C5.62264 46.5497 13.1934 53.9963 22.5323 53.9963C31.8712 53.9963 39.442 46.5497 39.442 37.3639Z" fill="white"/>
</svg>
