<svg width="27" height="26" viewBox="0 0 27 26" fill="none" xmlns="http://www.w3.org/2000/svg">
<path d="M15.743 0.535905C15.256 0.657653 14.7864 1.09247 14.6125 1.57366C14.5545 1.74179 14.5371 2.74476 14.5371 6.29863V10.8149L14.6994 10.954C15.0067 11.2149 15.0879 11.1685 16.0155 10.2525L16.8619 9.4119H19.6621C21.3724 9.4119 22.4971 9.38871 22.5667 9.35392C22.8449 9.20319 22.787 8.65822 22.4797 8.54227C22.271 8.46111 16.7112 8.4669 16.5025 8.54227C16.4155 8.57706 16.143 8.80316 15.8937 9.04665L15.4357 9.48726L15.4415 5.78265C15.4415 3.06942 15.4589 2.02587 15.5111 1.87513C15.5517 1.76498 15.6676 1.62004 15.7778 1.54467L15.9749 1.41133H20.5491C25.564 1.41133 25.4248 1.39973 25.6104 1.75338C25.6915 1.90992 25.6973 2.29255 25.6857 5.03478L25.6683 8.13644L25.5118 8.29298C25.3785 8.42632 25.2857 8.45531 24.932 8.49009C24.5784 8.51908 24.4972 8.54807 24.3813 8.68141C24.2132 8.87853 24.2132 9.07564 24.3813 9.27276C24.4972 9.4061 24.5552 9.42929 24.8915 9.42929C25.4306 9.43509 25.8365 9.27855 26.1669 8.9481C26.6307 8.4843 26.6249 8.53068 26.6249 4.94201C26.6249 1.9447 26.6191 1.81136 26.509 1.50409C26.4278 1.29538 26.3003 1.10986 26.1263 0.947529C25.622 0.483727 26.0104 0.512715 20.6825 0.50112C18.0678 0.495322 15.8473 0.512715 15.743 0.535905Z" fill="#3E82C2"/>
<path d="M17.0647 3.30132C16.9024 3.50423 16.9139 3.68975 17.0821 3.88687C17.2154 4.0434 17.2502 4.0492 17.8126 4.06659C18.5199 4.09558 18.7634 4.055 18.9141 3.89267C19.0706 3.71874 19.0648 3.43466 18.8967 3.27813C18.7692 3.16218 18.7054 3.15058 17.9749 3.15058C17.1864 3.15058 17.1806 3.15058 17.0647 3.30132Z" fill="#3E82C2"/>
<path d="M20.6645 3.28393C20.3979 3.56221 20.5544 3.97383 20.9544 4.0492C21.0588 4.06659 21.7835 4.07819 22.5545 4.06659C23.9575 4.0492 23.9691 4.0492 24.0793 3.91006C24.2242 3.73034 24.2242 3.41727 24.0735 3.26653C23.9633 3.15638 23.8822 3.15058 22.3748 3.15058C20.7921 3.15058 20.7863 3.15058 20.6645 3.28393Z" fill="#3E82C2"/>
<path d="M17.0873 6.02034C16.9946 6.10731 16.9424 6.22906 16.9424 6.33921C16.9424 6.44936 16.9946 6.57111 17.0873 6.65807L17.2265 6.80301H20.5542C23.8356 6.80301 23.8878 6.80301 24.0385 6.68126C24.253 6.51313 24.253 6.16528 24.0385 5.99715C23.8878 5.87541 23.8356 5.87541 20.5542 5.87541H17.2265L17.0873 6.02034Z" fill="#3E82C2"/>
<path d="M11.2032 7.16827C10.6815 7.28422 10.293 7.57989 10.0495 8.04949C9.56253 9.00028 9.99155 10.1772 10.9481 10.525L11.1453 10.5946V11.4816V12.3686H7.88125C4.25201 12.3686 4.30419 12.3628 3.84619 12.7571C3.71284 12.8672 3.53312 13.0933 3.44616 13.2615C3.29542 13.5513 3.28962 13.5919 3.27223 14.7166L3.24904 15.8761L2.83162 16.0037C0.814087 16.624 0.0198274 19.0126 1.2547 20.7402C1.66052 21.3084 2.38521 21.7954 3.02294 21.9229L3.23165 21.9693L3.26064 23.123C3.28962 24.1782 3.30122 24.3057 3.42297 24.5492C3.5911 24.8913 3.89836 25.1985 4.24042 25.3667L4.5071 25.5H11.5801C18.6356 25.5 18.653 25.5 18.9139 25.3783C19.2734 25.2101 19.5227 24.9898 19.714 24.6652C19.8705 24.3985 19.8705 24.3869 19.8879 23.1984L19.9053 21.9983L20.3459 21.8708C22.1837 21.3258 23.0475 19.2329 22.1605 17.4704C21.8127 16.7747 21.2097 16.282 20.3923 16.0153L19.9285 15.8587L19.8995 14.6818C19.8705 13.6035 19.8589 13.476 19.743 13.2615C19.5632 12.9252 19.285 12.6643 18.9429 12.5078L18.653 12.3686H15.3658H12.0729V11.4758V10.5888L12.3279 10.4902C12.4729 10.4323 12.699 10.2873 12.8265 10.154C13.673 9.33654 13.4469 7.82918 12.4091 7.33639C11.9685 7.12189 11.6322 7.07551 11.2032 7.16827ZM12.0555 8.19443C12.5656 8.50169 12.5367 9.34233 12.0091 9.62061C11.7192 9.76555 11.2496 9.70758 11.0293 9.49887C10.6525 9.13942 10.6699 8.60025 11.0583 8.2582C11.2322 8.10746 11.3134 8.07848 11.5685 8.07848C11.7656 8.07848 11.9337 8.11906 12.0555 8.19443ZM18.6182 13.3774C18.9545 13.5571 18.9429 13.418 18.9719 16.5544L19.0009 19.4532L19.14 19.5633C19.3197 19.7083 19.6328 19.7083 19.7835 19.5575C19.8937 19.4474 19.8995 19.3662 19.8995 18.1314V16.8269L20.0328 16.8617C20.6184 17.0414 21.1402 17.4704 21.3895 17.9864C21.5344 18.2763 21.5518 18.3749 21.5518 18.9198C21.5518 19.4648 21.5344 19.5633 21.3953 19.8474C21.0416 20.5663 20.4966 20.949 19.6676 21.0649C18.9777 21.1635 19.0067 21.0939 18.9719 22.7694C18.9429 24.0796 18.9371 24.1956 18.827 24.3115C18.5603 24.613 18.827 24.6014 11.5685 24.6014C5.23759 24.6014 4.78538 24.5956 4.59407 24.497C4.18244 24.2941 4.18824 24.3231 4.18824 21.2214V18.4502L4.0433 18.3111C3.89257 18.1546 3.74763 18.1314 3.53312 18.2299C3.28962 18.3401 3.26064 18.5024 3.26064 19.7895C3.26064 20.7692 3.24324 21.0069 3.18527 21.0069C2.99975 21.0069 2.38521 20.6359 2.15911 20.3924C2.02577 20.2475 1.84604 19.9808 1.76488 19.801C1.63733 19.5228 1.60835 19.3894 1.60835 18.9488C1.60835 18.485 1.62574 18.3865 1.79387 18.0386C2.12432 17.3313 2.77365 16.8733 3.55051 16.7921C3.82879 16.7631 3.95634 16.7226 4.0549 16.624C4.18824 16.4907 4.18824 16.4675 4.18824 15.1804C4.18824 13.76 4.20563 13.6557 4.5129 13.418L4.66943 13.2962H11.5627C17.4356 13.2962 18.4791 13.3078 18.6182 13.3774Z" fill="#3E82C2"/>
<path d="M7.87585 15.4471C7.7541 15.4761 7.49901 15.5805 7.31349 15.6848C5.93948 16.4153 5.69599 18.4386 6.84969 19.517C8.02079 20.6185 9.89339 20.2648 10.6065 18.8155C10.821 18.3922 10.8268 18.3517 10.8268 17.7661C10.8268 17.198 10.8152 17.1226 10.6413 16.7631C10.4036 16.253 9.98615 15.8355 9.48176 15.5978C9.1513 15.4471 9.01216 15.4181 8.59474 15.4007C8.32226 15.3949 8.0034 15.4123 7.87585 15.4471ZM8.96578 16.3805C9.30784 16.4849 9.76584 16.9545 9.8644 17.3139C10.0499 17.9806 9.80642 18.6705 9.26725 19.0068C9.03535 19.1459 8.90781 19.1807 8.55416 19.1981C8.18312 19.2213 8.09036 19.2039 7.81208 19.0648C7.63815 18.9836 7.42944 18.8271 7.34828 18.7227C7.0526 18.3285 6.95405 17.7719 7.09898 17.2733C7.18595 16.9777 7.67294 16.4791 7.95702 16.3863C8.2353 16.2993 8.67591 16.2993 8.96578 16.3805Z" fill="#3E82C2"/>
<path d="M13.882 15.4935C13.453 15.65 13.2327 15.8008 12.9196 16.137C12.4095 16.682 12.1833 17.4067 12.2993 18.114C12.4384 18.9546 12.8906 19.5749 13.6269 19.9228C13.9922 20.0967 14.0559 20.1083 14.6531 20.1083C15.2444 20.1083 15.3198 20.0967 15.6677 19.9286C16.2996 19.6271 16.6706 19.2271 16.8793 18.6125C17.2968 17.4009 16.7924 16.1428 15.6735 15.6036C15.343 15.4413 15.2154 15.4181 14.7401 15.4007C14.3052 15.3833 14.1255 15.4065 13.882 15.4935ZM15.1865 16.3979C15.7662 16.6414 16.0793 17.1226 16.0793 17.7835C16.0793 18.6299 15.4937 19.2213 14.6531 19.2213C14.0675 19.2213 13.5921 18.9314 13.3429 18.4212C13.1052 17.9226 13.2211 17.1342 13.5979 16.7226C13.9342 16.3573 14.7111 16.2008 15.1865 16.3979Z" fill="#3E82C2"/>
<path d="M8.56584 21.3258C8.46728 21.4185 8.4209 21.5287 8.4209 21.6678C8.4209 21.836 8.46728 21.9055 8.69918 22.1084C9.04123 22.4099 10.0036 22.8795 10.537 23.0071C11.1167 23.152 12.0849 23.1404 12.6763 22.9839C13.7198 22.7056 14.7286 22.0447 14.7402 21.6272C14.7402 21.4765 14.4271 21.1808 14.2648 21.1808C14.1836 21.1808 13.9807 21.291 13.8068 21.4185C13.1517 21.9171 12.4096 22.1664 11.5747 22.1722C10.7341 22.178 10.05 21.9461 9.29632 21.4069C8.93108 21.1461 8.76295 21.1229 8.56584 21.3258Z" fill="#3E82C2"/>
</svg>
