<svg width="24" height="26" viewBox="0 0 24 26" fill="none" xmlns="http://www.w3.org/2000/svg">
<path d="M4.46204 0.555669C4.36083 0.611336 4.30516 0.808702 4.21407 1.38562C4.14322 1.8765 4.10779 1.94229 3.92055 2.00807C3.78391 2.05362 3.73837 2.03338 3.28797 1.7095C3.02482 1.52225 2.74648 1.35019 2.67563 1.32995C2.55924 1.29958 2.46308 1.38055 1.75965 2.07386C1.18274 2.65078 0.980315 2.87851 0.980315 2.9696C0.980315 3.04045 1.13213 3.30866 1.33962 3.59712C1.69387 4.09306 1.69893 4.10824 1.64832 4.29043L1.59265 4.47261L0.949951 4.58394C0.545099 4.64973 0.281946 4.72058 0.226279 4.77119C0.16049 4.84204 0.145308 5.00904 0.130126 5.8491C0.109884 6.96245 0.140248 7.09402 0.39328 7.17499C0.529917 7.22054 1.44083 7.38248 1.54205 7.38248C1.56735 7.38248 1.60783 7.46851 1.64326 7.57478C1.69893 7.77215 1.69893 7.77215 1.33962 8.27315C1.12707 8.56667 0.980315 8.8197 0.980315 8.89561C0.980315 8.9867 1.17262 9.21443 1.72423 9.7711C2.36693 10.4189 2.48839 10.5201 2.63008 10.5201C2.82239 10.5201 2.95397 10.3834 2.95397 10.1861C2.95397 10.0646 2.85275 9.93305 2.37199 9.45735C2.05317 9.13852 1.79002 8.86525 1.79002 8.84501C1.79002 8.82982 1.93678 8.60716 2.11896 8.35412C2.30114 8.10109 2.4479 7.84806 2.4479 7.78733C2.4479 7.69118 2.22523 7.10414 2.09872 6.87642C2.05317 6.79545 1.7799 6.71954 1.19286 6.62338L0.823435 6.56266L0.838617 5.92501L0.853799 5.28737L1.41047 5.19122C1.76978 5.13555 1.9975 5.06977 2.04811 5.0141C2.15438 4.90782 2.4479 4.20439 2.4479 4.0627C2.4479 4.00703 2.29608 3.74388 2.1139 3.48578L1.77484 3.0202L2.23029 2.56981L2.68069 2.11435L3.14121 2.44835C3.40942 2.64066 3.6574 2.77729 3.72825 2.77729C3.875 2.77729 4.55819 2.49896 4.67965 2.38762C4.73531 2.34208 4.79604 2.11941 4.85677 1.7348L4.94786 1.15789H5.5855H6.22314L6.31423 1.7348C6.37496 2.11941 6.43569 2.34208 6.49136 2.39268C6.60775 2.4939 7.30612 2.77729 7.44782 2.77729C7.51361 2.77729 7.7717 2.63053 8.02979 2.44835L8.49537 2.11941L8.94577 2.56981L9.39617 3.0202L9.0571 3.49084C8.6725 4.02727 8.66743 4.04751 8.90022 4.59912C9.07229 5.00904 9.15326 5.10519 9.33544 5.10519C9.48726 5.10519 9.68462 4.93819 9.68462 4.80661C9.68462 4.76107 9.63402 4.589 9.57329 4.41694L9.46196 4.10824L9.69475 3.78436C10.1198 3.1872 10.1907 3.06575 10.1907 2.95948C10.1907 2.81778 8.68262 1.30971 8.54092 1.30971C8.48525 1.30971 8.20692 1.47671 7.91846 1.68419C7.4377 2.03338 7.38709 2.05362 7.25045 2.00807C7.05815 1.94229 7.03285 1.89168 6.92657 1.23886C6.86585 0.864368 6.80512 0.656882 6.73933 0.591094C6.65836 0.510123 6.55208 0.500002 5.60068 0.500002C4.98835 0.500002 4.51265 0.525305 4.46204 0.555669Z" fill="#3E82C2"/>
<path d="M13.8195 3.54144C12.1444 3.78435 10.606 4.76106 9.67481 6.17298L9.41672 6.55758L9.10802 6.45637C8.69811 6.31973 7.77707 6.30961 7.30643 6.43613C6.55239 6.63349 5.75787 7.15474 5.32266 7.73672C4.8672 8.34905 4.57368 9.2043 4.57368 9.92798V10.2569L4.30041 10.3683C3.28322 10.7782 2.33688 11.6587 1.83587 12.6557C1.50693 13.3085 1.37535 13.8297 1.35005 14.6243C1.31969 15.4238 1.3956 15.9198 1.65369 16.5625C1.85105 17.0584 2.00793 17.1951 2.24072 17.0989C2.42797 17.023 2.4887 16.8408 2.40267 16.6232C2.05348 15.7325 1.94721 15.0645 2.0383 14.356C2.24578 12.7569 3.22755 11.5069 4.71538 10.9452C4.94817 10.8591 5.1759 10.7529 5.21638 10.7073C5.28217 10.6415 5.29735 10.5201 5.28723 10.0697C5.26699 9.11321 5.49472 8.5363 6.14248 7.88347C6.57264 7.44826 7.0534 7.18004 7.59489 7.07883C8.04022 6.98774 8.72847 7.03835 9.10296 7.18004C9.26996 7.24077 9.47745 7.30656 9.56854 7.31668C9.74566 7.34705 9.73554 7.35717 10.2416 6.56265C10.7679 5.7327 11.6636 4.98372 12.6201 4.58393C14.6039 3.74387 16.9267 4.20438 18.4652 5.73776C19.5937 6.87134 20.1757 8.48063 20.0087 10.0342C19.9682 10.4087 19.9631 10.5909 20.0036 10.6618C20.039 10.7276 20.1908 10.8035 20.3983 10.8743C21.0714 11.0869 21.5117 11.3652 22.0633 11.9117C22.4833 12.3318 22.6098 12.4937 22.8072 12.8783C23.1665 13.5767 23.2677 14.0069 23.2677 14.7963C23.2728 15.272 23.2475 15.5504 23.1766 15.8084C23.0501 16.3094 22.6908 17.0129 22.3669 17.4228C22.0582 17.7973 22.0127 17.9795 22.1797 18.1313C22.2404 18.1869 22.3366 18.2123 22.4428 18.2021C22.7566 18.1718 23.4246 17.2254 23.708 16.4005C23.9711 15.6414 24.042 14.6192 23.88 13.8399C23.5612 12.3065 22.5238 11.0363 21.0663 10.3936L20.707 10.2367L20.7121 9.60409C20.7273 8.58184 20.5299 7.71647 20.0846 6.8258C19.0471 4.76106 16.9368 3.46553 14.6444 3.49083C14.3509 3.49589 13.9814 3.51614 13.8195 3.54144Z" fill="#3E82C2"/>
<path d="M5.07989 3.60217C4.21451 3.79954 3.50602 4.48273 3.28336 5.33292C3.06575 6.16792 3.28842 6.95738 3.91594 7.59502C4.27018 7.95939 4.40176 8.01 4.61431 7.85818C4.81673 7.71648 4.76613 7.49381 4.46755 7.20535C3.56169 6.31974 3.74387 4.99891 4.85216 4.40682C5.07482 4.28536 5.16086 4.27018 5.58595 4.27018C6.00598 4.27018 6.09708 4.28536 6.31974 4.40682C6.76508 4.63961 7.12945 5.09 7.23572 5.5404C7.28633 5.75801 7.40272 5.86428 7.58491 5.86428C7.94421 5.86428 8.01 5.50498 7.75191 4.94831C7.28633 3.94124 6.13756 3.36432 5.07989 3.60217Z" fill="#3E82C2"/>
<path d="M14.4519 5.1811C14.3152 5.35316 14.3102 5.4645 14.4316 5.61126C14.5126 5.70741 14.5986 5.73271 15.0035 5.76814C15.5399 5.81368 15.9043 5.90983 16.3243 6.11732C17.5338 6.71954 18.2929 7.79745 18.4498 9.16383C18.5156 9.72556 18.5915 9.8622 18.8192 9.8622C18.8901 9.8622 18.9963 9.81159 19.052 9.75592C19.1532 9.65471 19.1583 9.60917 19.133 9.15877C19.0115 7.01812 17.1998 5.22159 15.0187 5.06977C14.5632 5.0394 14.5632 5.0394 14.4519 5.1811Z" fill="#3E82C2"/>
<path d="M15.3629 10.434C15.1807 10.6263 15.2212 10.7529 15.5906 11.1324L15.9246 11.4816H13.541C11.2182 11.4816 11.1473 11.4867 11.0512 11.5828C10.9196 11.7144 10.9196 11.9472 11.0562 12.0686C11.1575 12.1597 11.284 12.1648 13.541 12.18L15.9246 12.1951L15.5855 12.5393C15.3882 12.7518 15.2515 12.934 15.2515 12.9947C15.2515 13.1415 15.4691 13.354 15.6159 13.354C15.7778 13.354 17.124 12.0028 17.124 11.8358C17.124 11.7498 16.9317 11.5221 16.4306 11.016C15.6817 10.262 15.5754 10.2063 15.3629 10.434Z" fill="#3E82C2"/>
<path d="M9.60883 12.2913C9.55316 12.3166 9.2141 12.6304 8.85479 12.9897C8.34367 13.5109 8.20703 13.6779 8.20703 13.7842C8.20703 13.8955 8.34367 14.0625 8.8801 14.599C9.45701 15.1809 9.57847 15.2771 9.7151 15.2771C9.90235 15.2771 10.039 15.1404 10.039 14.9532C10.039 14.8469 9.95295 14.7204 9.69992 14.4623L9.36592 14.1131H11.7697C13.9964 14.1131 14.1786 14.1081 14.2494 14.022C14.4367 13.8044 14.381 13.5463 14.1229 13.4553C14.0268 13.4249 13.1563 13.4046 11.6938 13.4046H9.42159L9.73029 13.0757C9.95801 12.8328 10.039 12.7063 10.039 12.6C10.039 12.3824 9.8062 12.2154 9.60883 12.2913Z" fill="#3E82C2"/>
<path d="M8.8848 16.3044C8.82407 16.3702 8.77347 16.4663 8.77347 16.522C8.77347 16.6688 8.90504 16.8307 9.0518 16.8661L9.17832 16.8965V17.9137V18.9258L7.24515 18.9106C5.3879 18.8904 5.29174 18.8853 4.95268 18.774C4.48204 18.6222 3.92031 18.3185 3.52558 18.0048C3.16121 17.7113 3.00433 17.6961 2.83733 17.9187C2.7513 18.0301 2.74118 18.0857 2.78166 18.1971C2.84239 18.3742 3.45979 18.855 3.93549 19.0928C4.88689 19.5685 5.29174 19.6292 7.46276 19.6292H9.17832V20.4642V21.2993H8.72286H8.2674V20.8033C8.2674 20.3833 8.25222 20.2871 8.17631 20.2213C8.09534 20.1454 7.91822 20.1353 6.76945 20.1353C5.71178 20.1353 5.43344 20.1505 5.35247 20.2062C5.26138 20.2719 5.25632 20.358 5.24114 21.5978L5.22596 22.9187L5.35753 23.0452L5.48405 23.1768L6.79982 23.1616C7.78664 23.1515 8.12571 23.1312 8.17631 23.0806C8.2168 23.0401 8.25222 22.8225 8.2674 22.4986L8.29271 21.9824L8.98095 21.9673C9.91717 21.947 9.85645 22.0381 9.87669 20.6869L9.89187 19.6292H11.5113H13.1256V21.6282V23.6272H12.6702H12.2147V23.1515C12.2147 22.4379 12.2704 22.4632 10.6965 22.4632C9.50726 22.4632 9.43641 22.4683 9.3099 22.5695L9.17832 22.6707V23.9865C9.17832 25.2314 9.18338 25.3022 9.27953 25.3984C9.37568 25.4945 9.44653 25.4996 10.6965 25.4996C12.3058 25.4996 12.2147 25.5401 12.2147 24.8164V24.3356H12.8979C13.5153 24.3356 13.5912 24.3255 13.6823 24.2344C13.7784 24.1383 13.7835 24.0674 13.7835 21.8812V19.6292H14.6185H15.4535V21.8509C15.4535 24.5887 15.3624 24.3356 16.3442 24.3356H17.0223V24.786C17.0223 25.1605 17.0375 25.2516 17.1286 25.368L17.2298 25.4996H18.5608C19.7854 25.4996 19.8968 25.4945 19.9727 25.4085C20.0486 25.3275 20.0587 25.1504 20.0587 23.9662C20.0587 22.6353 20.0587 22.6201 19.9474 22.5442C19.8512 22.4733 19.6286 22.4632 18.5506 22.4632H17.2703L17.1488 22.5897C17.0324 22.7011 17.0223 22.7517 17.0223 23.1717V23.6272H16.5922H16.162V21.6282V19.6292H17.8523C19.664 19.6292 20.0587 19.5938 20.7419 19.361C21.6984 19.0321 22.0273 18.7133 21.7287 18.4147C21.5921 18.278 21.4048 18.2882 21.1417 18.44C21.0253 18.5108 20.7166 18.6374 20.4534 18.7284L19.9828 18.8954L18.0749 18.9106L16.162 18.9258V17.9238L16.1671 16.9218L16.329 16.8206C16.5314 16.689 16.577 16.4512 16.4201 16.2943C16.3138 16.188 16.2835 16.188 12.655 16.188H8.99108L8.8848 16.3044ZM13.075 17.9086V18.9208H11.4556H9.8362V17.9086V16.8965H11.4556H13.075V17.9086ZM15.4535 17.9086V18.9208H14.6185H13.7835V17.9086V16.8965H14.6185H15.4535V17.9086ZM7.60952 21.6282V22.4632H6.77451H5.93951V21.6282V20.7932H6.77451H7.60952V21.6282ZM11.5062 24.0067V24.8417L10.6864 24.8316L9.86151 24.8164L9.84632 23.9915L9.8362 23.1717H10.6712H11.5062V24.0067ZM19.3907 23.9915L19.3755 24.8164L18.5557 24.8316L17.7308 24.8417V24.0067V23.1717H18.5658H19.4008L19.3907 23.9915Z" fill="#3E82C2"/>
</svg>
