<svg width="31" height="26" viewBox="0 0 31 26" fill="none" xmlns="http://www.w3.org/2000/svg">
<path d="M2.16494 0.546328C1.62058 0.673731 1.05306 1.21809 0.890911 1.77403C0.757717 2.21415 0.757717 20.0622 0.890911 20.4965C1.0299 20.9482 1.3542 21.3246 1.81169 21.5621L2.21127 21.7648L6.80358 21.7821C10.9789 21.7937 11.4017 21.8053 11.4017 21.8922C11.4017 22.0138 11.1179 24.336 11.0774 24.4981C11.0542 24.6313 11.0368 24.6313 10.2551 24.6313C9.38639 24.6313 9.24741 24.6719 9.17792 24.9498C9.13738 25.1178 9.26478 25.4073 9.40377 25.4653C9.53117 25.5116 21.7271 25.5116 21.8545 25.4653C21.9935 25.4073 22.1209 25.1178 22.0804 24.9498C22.0109 24.6719 21.8719 24.6313 21.0033 24.6313C20.2215 24.6313 20.2041 24.6313 20.1809 24.5039C20.1404 24.336 19.8566 22.0138 19.8566 21.8922C19.8566 21.8053 20.2794 21.7937 24.4547 21.7821L29.047 21.7648L29.4466 21.5621C29.7304 21.4173 29.9041 21.2783 30.0547 21.0756C30.4832 20.5081 30.4543 21.2494 30.4543 11.144C30.4543 3.12914 30.4427 2.03463 30.3674 1.76824C30.24 1.34549 29.8578 0.899582 29.4408 0.685312L29.0992 0.511581L15.7508 0.5C7.66645 0.5 2.30393 0.517372 2.16494 0.546328ZM29.0702 1.48448C29.2497 1.57714 29.3655 1.69296 29.4582 1.87248L29.5856 2.12729V11.1324C29.5856 20.1201 29.5856 20.1375 29.464 20.3807C29.3945 20.5313 29.2555 20.6876 29.1339 20.7629L28.9196 20.8961H15.6292H2.33868L2.12441 20.7629C2.00279 20.6876 1.86381 20.5313 1.79432 20.3807C1.6727 20.1375 1.6727 20.1201 1.6727 11.1324V2.12729L1.8059 1.87248C1.89276 1.69296 2.00859 1.57714 2.18811 1.48448L2.44291 1.35128H15.6292H28.8154L29.0702 1.48448ZM14.0077 22.1991C14.1872 22.894 14.413 23.2067 14.9574 23.4847C15.2991 23.6642 15.965 23.6642 16.3241 23.4789C16.8395 23.2125 17.0769 22.8882 17.2507 22.1991L17.3433 21.8227L18.1541 21.8053L18.9648 21.7879L19.1385 23.2125L19.3123 24.6313H15.6292H11.946L12.1198 23.2125L12.2935 21.7879L13.1043 21.8053L13.915 21.8227L14.0077 22.1991ZM16.4167 21.979C16.3241 22.4423 15.994 22.7782 15.6292 22.7782C15.2643 22.7782 14.9342 22.4423 14.8416 21.979L14.8068 21.7937H15.6292H16.4573L16.4167 21.979Z" fill="#3E82C2"/>
<path d="M2.802 2.48054L2.65723 2.61953V11.1382C2.65723 19.5352 2.65723 19.651 2.77305 19.7669C2.92941 19.9232 3.09735 19.958 3.70541 19.9348C4.17448 19.9116 4.24398 19.9 4.34242 19.7726C4.49299 19.5873 4.48141 19.3499 4.31926 19.1993C4.21502 19.1009 4.11078 19.0719 3.85598 19.0719H3.52589V11.1382V3.20442H14.5289H25.5377L25.6883 3.05386C25.8041 2.93803 25.8273 2.87433 25.7983 2.72376C25.7809 2.61953 25.7056 2.49212 25.6419 2.43421C25.5261 2.34156 24.8949 2.33576 14.2278 2.33576H2.94099L2.802 2.48054Z" fill="#3E82C2"/>
<path d="M26.9503 2.48054C26.765 2.66006 26.7592 2.90908 26.9387 3.07702C27.043 3.17547 27.1472 3.20442 27.402 3.20442H27.7321V11.1382V19.0719H16.7059H5.67396L5.55814 19.2225C5.48864 19.3094 5.43652 19.4136 5.43652 19.4541C5.43652 19.6047 5.56972 19.8132 5.7087 19.8769C5.80715 19.9232 8.95749 19.9406 17.0244 19.9406C28.9598 19.9406 28.4618 19.9522 28.566 19.68C28.5834 19.6279 28.6008 15.7652 28.6008 11.1034V2.61953L28.456 2.48054C28.3228 2.34735 28.2765 2.33576 27.7031 2.33576C27.1298 2.33576 27.0835 2.34735 26.9503 2.48054Z" fill="#3E82C2"/>
<path d="M8.92906 5.18496C8.85956 5.21971 8.7727 5.31816 8.73795 5.39923C8.62213 5.683 8.73795 5.82777 9.47342 6.32001L10.1568 6.77751L10.9617 9.60933C11.4018 11.1671 11.813 12.528 11.8709 12.6323L11.9809 12.8234L11.6509 13.472C11.2629 14.2422 11.2281 14.5202 11.4713 14.885C11.6161 15.1108 11.6219 15.1224 11.5408 15.4293C11.4771 15.6726 11.4713 15.8116 11.5177 16.0432C11.7783 17.2883 13.4229 17.5315 14.031 16.4138C14.1758 16.1416 14.1931 16.0606 14.17 15.7073L14.1468 15.3077H16.0926H18.0384L18.0152 15.6842C17.9921 16.0027 18.0152 16.1069 18.1426 16.3791C18.687 17.491 20.2969 17.3346 20.6444 16.1359C20.7312 15.8347 20.737 15.7652 20.6617 15.4815C20.5922 15.2209 20.5922 15.134 20.6502 15.0182C20.7312 14.856 20.7023 14.6939 20.5633 14.5375C20.4822 14.4449 20.2042 14.4391 16.3416 14.4391C13.5735 14.4391 12.2126 14.4217 12.2126 14.3812C12.2126 14.3464 12.3284 14.0916 12.4674 13.8136L12.7222 13.304L12.9481 13.3272C13.2955 13.3561 19.4398 12.6033 19.7699 12.4933C20.1695 12.3543 20.6733 11.8505 20.8007 11.4567C20.8528 11.2945 21.0671 10.3101 21.2756 9.26187C21.6231 7.48981 21.6462 7.34503 21.5594 7.21763C21.513 7.14234 21.4146 7.05548 21.3451 7.02652C21.2756 6.99757 19.0692 6.88174 16.4401 6.76592C11.147 6.54007 10.9386 6.52849 10.9386 6.43004C10.9328 6.3895 10.8864 6.30843 10.8343 6.23894C10.6895 6.071 9.24756 5.11547 9.14333 5.12126C9.097 5.12126 8.99855 5.15022 8.92906 5.18496ZM12.9481 7.51297C12.977 7.54193 13.2492 9.08235 13.255 9.23871C13.255 9.26766 12.9191 9.28503 12.5137 9.28503H11.7725L11.5061 8.35267L11.2397 7.41452L12.0794 7.44927C12.5369 7.46664 12.9307 7.4956 12.9481 7.51297ZM15.2124 7.58825L15.6872 7.623V8.45112V9.28503H14.917H14.1468L14.0194 8.48587C13.9499 8.05154 13.892 7.65775 13.892 7.61721C13.892 7.53613 14.419 7.52455 15.2124 7.58825ZM18.2179 7.73882C18.2237 7.7504 18.2063 8.10366 18.1658 8.52061L18.1021 9.28503H17.3261H16.5559V8.4627V7.64616L17.3782 7.68091C17.8241 7.70407 18.2063 7.72724 18.2179 7.73882ZM20.6502 7.85464C20.6675 7.87202 20.5112 8.71751 20.4069 9.15184C20.378 9.27924 20.3548 9.28503 19.6773 9.28503H18.9708L19.0113 8.80438C19.0345 8.54378 19.0692 8.20211 19.0866 8.04575L19.1213 7.76199L19.8742 7.79673C20.2853 7.8199 20.6328 7.84306 20.6502 7.85464ZM13.394 10.2C13.4287 10.2637 13.7878 12.3659 13.7646 12.3832C13.753 12.3948 13.5619 12.418 13.3361 12.4412C12.7222 12.4991 12.6817 12.4527 12.3284 11.225C12.172 10.6807 12.0389 10.2232 12.0389 10.1942C12.0389 10.1363 13.3592 10.1421 13.394 10.2ZM15.6583 11.1671V12.1516L15.166 12.2211C14.8996 12.2616 14.668 12.2848 14.6564 12.2732C14.639 12.2558 14.2974 10.2869 14.2974 10.1942C14.2974 10.1711 14.6043 10.1595 14.9807 10.1653L15.6583 10.1826V11.1671ZM17.9805 10.5127C17.9631 10.7154 17.9284 11.1034 17.911 11.3814C17.8647 11.9489 17.8936 11.92 17.3377 11.9721C17.1466 11.9952 16.8918 12.0242 16.7759 12.0416L16.5559 12.0763V11.115V10.1537H17.2856H18.021L17.9805 10.5127ZM20.1869 10.2811C20.1695 10.3564 20.1232 10.5764 20.0826 10.7791C19.961 11.4104 19.6715 11.6999 19.075 11.7578C18.7854 11.7868 18.7565 11.781 18.7565 11.6767C18.7565 11.4914 18.8781 10.3043 18.9013 10.2232C18.9186 10.1711 19.1097 10.1537 19.573 10.1537C20.21 10.1537 20.2158 10.1537 20.1869 10.2811ZM13.1797 15.4351C13.4403 15.6784 13.3129 16.1243 12.9538 16.2517C12.7685 16.3154 12.4963 16.1706 12.4095 15.9679C12.2126 15.493 12.8033 15.0819 13.1797 15.4351ZM19.6425 15.3888C19.8162 15.522 19.8799 15.7942 19.7757 15.9911C19.6831 16.1764 19.3993 16.3096 19.2313 16.2517C18.6986 16.0664 18.7796 15.3019 19.3298 15.3077C19.4456 15.3077 19.5846 15.3483 19.6425 15.3888Z" fill="#3E82C2"/>
</svg>
