<svg width="29" height="26" viewBox="0 0 29 26" fill="none" xmlns="http://www.w3.org/2000/svg">
<path d="M3.75004 0.5C2.06997 0.5 0.708008 1.86197 0.708008 3.54204V16.3462C0.708008 16.5601 0.881349 16.7334 1.09518 16.7334C1.309 16.7334 1.48234 16.5601 1.48234 16.3462V3.54204C1.48234 2.28962 2.49763 1.27434 3.75004 1.27434H24.989C26.2414 1.27434 27.2567 2.28962 27.2567 3.54204V6.00332C27.2567 6.21715 27.43 6.39049 27.6438 6.39049C27.8577 6.39049 28.031 6.21715 28.031 6.00332V3.54204C28.031 1.86197 26.6691 0.5 24.989 0.5H3.75004Z" fill="#3E82C2"/>
<path d="M28.031 9.26659C28.031 9.05277 27.8577 8.87943 27.6438 8.87943C27.43 8.87943 27.2567 9.05277 27.2567 9.26659V22.458C27.2567 23.7104 26.2414 24.7257 24.989 24.7257H3.75004C2.49763 24.7257 1.48234 23.7104 1.48234 22.458V19.0564C1.48234 18.8426 1.309 18.6692 1.09518 18.6692C0.881349 18.6692 0.708008 18.8426 0.708008 19.0564V22.458C0.708008 24.138 2.06997 25.5 3.75004 25.5H24.989C26.6691 25.5 28.031 24.138 28.031 22.458V9.26659Z" fill="#3E82C2"/>
<path d="M7.32506 17.9226C7.82788 18.1639 8.39438 18.2846 9.02458 18.2846C9.71511 18.2846 10.3269 18.1354 10.8599 17.8371C11.3962 17.5354 11.8152 17.1231 12.1169 16.6002C12.4219 16.0772 12.5728 15.4822 12.5694 14.8152C12.5728 14.1481 12.432 13.5581 12.1471 13.0453C11.8655 12.529 11.4783 12.1217 10.9856 11.8234C10.4962 11.5251 9.93803 11.3759 9.31119 11.3759C8.92905 11.3759 8.57037 11.4413 8.23516 11.572C7.9033 11.7027 7.63681 11.8653 7.43568 12.0597H7.37535L7.70218 9.1786H12.0716V7.84614H6.40994L5.8317 13.0352L7.25467 13.2464C7.44909 13.0721 7.70385 12.9313 8.01895 12.824C8.33405 12.7167 8.64747 12.6631 8.95922 12.6631C9.36817 12.6665 9.7302 12.762 10.0453 12.9497C10.3637 13.1374 10.6135 13.3955 10.7945 13.7241C10.9755 14.0526 11.066 14.4263 11.066 14.8453C11.066 15.2576 10.9772 15.6247 10.7995 15.9465C10.6252 16.2683 10.3839 16.5214 10.0755 16.7058C9.77042 16.8868 9.42013 16.9773 9.02458 16.9773C8.52847 16.9773 8.10275 16.8348 7.74743 16.5499C7.39211 16.265 7.19601 15.9012 7.15913 15.4588H5.65069C5.6708 16.0052 5.83002 16.4912 6.12836 16.9169C6.4267 17.3427 6.8256 17.6779 7.32506 17.9226Z" fill="#3E82C2"/>
<path d="M21.1236 10.2798C21.2878 10.5211 21.4186 10.7943 21.5158 11.0994H23.1097C23.0226 10.5965 22.8549 10.139 22.6069 9.72667C22.3588 9.31101 22.0454 8.95233 21.6666 8.65064C21.2912 8.34895 20.8621 8.11598 20.3794 7.95173C19.9001 7.78748 19.3822 7.70535 18.8257 7.70535C18.1586 7.70535 17.5435 7.8277 16.9804 8.07241C16.4206 8.31376 15.9328 8.66405 15.5172 9.12329C15.1049 9.57918 14.7848 10.1339 14.5568 10.7876C14.3289 11.4413 14.2149 12.1787 14.2149 13C14.2149 14.0861 14.411 15.0247 14.8032 15.8158C15.1954 16.6035 15.7418 17.2119 16.4424 17.641C17.1463 18.0701 17.9642 18.2846 18.8961 18.2846C19.7274 18.2846 20.4649 18.112 21.1085 17.7667C21.7555 17.4214 22.2616 16.932 22.627 16.2985C22.9957 15.6616 23.1801 14.9107 23.1801 14.0459V12.8743H19.1324V14.1565H21.676C21.6661 14.6914 21.5507 15.159 21.3297 15.5593C21.1018 15.975 20.7783 16.2968 20.3593 16.5247C19.9436 16.7527 19.4559 16.8667 18.8961 16.8667C18.2927 16.8667 17.7547 16.7175 17.2821 16.4191C16.8094 16.1208 16.4373 15.6834 16.1658 15.1068C15.8943 14.5302 15.7585 13.8246 15.7585 12.9899C15.7585 12.1586 15.8926 11.4564 16.1608 10.8831C16.4323 10.3066 16.801 9.86913 17.267 9.5708C17.7329 9.27246 18.2559 9.12329 18.8358 9.12329C19.1777 9.12329 19.4911 9.16854 19.776 9.25905C20.0643 9.34956 20.3208 9.48197 20.5453 9.65628C20.7699 9.82723 20.9627 10.0351 21.1236 10.2798Z" fill="#3E82C2"/>
</svg>
