<svg width="24" height="26" viewBox="0 0 24 26" fill="none" xmlns="http://www.w3.org/2000/svg">
<g opacity="0.897">
<path d="M13.1584 6.45703C13.2703 6.44453 13.3761 6.46079 13.4758 6.50586C13.6256 7.02866 13.7803 7.54951 13.9397 8.06836C14.1092 7.55327 14.2638 7.03247 14.4035 6.50586C14.7096 6.38159 14.8398 6.47925 14.7941 6.79883C14.6087 7.43657 14.4134 8.07134 14.2082 8.70312C14.0292 8.83335 13.8501 8.83335 13.6711 8.70312C13.4682 8.07061 13.2729 7.43584 13.0852 6.79883C13.0445 6.66841 13.0689 6.55449 13.1584 6.45703Z" fill="#3E82C2"/>
<path fill-rule="evenodd" clip-rule="evenodd" d="M16.1369 6.48145C15.7792 6.45703 15.4212 6.44893 15.0627 6.45703C15.0066 7.2021 14.9985 7.95078 15.0383 8.70313C15.165 8.81567 15.3033 8.83193 15.4533 8.75196V7.82422C15.5407 7.8103 15.622 7.82656 15.6975 7.87305C15.8664 8.17026 16.0292 8.47139 16.1858 8.77637C16.3813 8.84116 16.5115 8.77608 16.5764 8.58106C16.4587 8.31309 16.3285 8.05264 16.1858 7.79981C16.4294 7.63818 16.5596 7.4103 16.5764 7.11621C16.5743 6.8022 16.4278 6.59063 16.1369 6.48145ZM15.4533 7.48242V6.84766C15.6169 6.8396 15.7797 6.84776 15.9416 6.87207C16.1141 7.0376 16.1304 7.21665 15.9905 7.40918C15.8166 7.46958 15.6376 7.494 15.4533 7.48242Z" fill="#3E82C2"/>
<path fill-rule="evenodd" clip-rule="evenodd" d="M11.1077 0.5H12.9631C14.4518 0.711327 15.6969 1.37864 16.6985 2.50195C17.2363 3.21174 17.57 4.00927 17.6994 4.89453C17.9684 4.92726 18.1637 5.0656 18.2854 5.30957C18.7184 5.25821 19.0683 5.39656 19.3352 5.72461C19.4152 6.99111 19.4315 8.26064 19.384 9.5332C19.297 9.80942 19.1098 9.98032 18.8225 10.0459C18.733 10.054 18.6435 10.0622 18.5539 10.0703C18.4644 10.0785 18.3749 10.0866 18.2854 10.0947C18.1012 10.4147 17.8245 10.553 17.4553 10.5098C17.4308 11.7801 16.9995 12.8869 16.1614 13.8301C15.7693 14.2385 15.3624 14.6291 14.9407 15.002C14.9081 15.4414 14.9081 15.8809 14.9407 16.3203C14.9979 16.7027 15.2014 16.9712 15.551 17.126L20.385 18.1514C21.9963 18.5825 22.9565 19.6161 23.2659 21.252C23.2307 21.6299 23.0354 21.752 22.6799 21.6182L22.5578 21.4961C22.3016 20.1918 21.5448 19.3374 20.2873 18.9326C18.8623 18.6354 17.4382 18.3343 16.0149 18.0293C13.3478 19.5917 10.6786 19.5917 8.00707 18.0293C6.48085 18.3443 4.95907 18.678 3.44164 19.0303C2.36299 19.4902 1.72009 20.2959 1.51293 21.4473C1.37171 22.3108 1.22523 23.1734 1.07347 24.0352C0.944869 24.4152 1.06694 24.6512 1.43968 24.7432C2.28588 24.7676 3.13224 24.7757 3.97875 24.7676C4.11217 23.8042 4.26679 22.8439 4.44261 21.8867C4.56151 21.6561 4.74872 21.5828 5.00414 21.667C5.12709 21.7583 5.19222 21.8804 5.19945 22.0332C5.05287 22.9452 4.90638 23.8566 4.76 24.7676H19.2619C19.1397 23.8797 19.0096 22.9927 18.8713 22.1064C18.8955 21.6506 19.1152 21.5285 19.5305 21.7402C19.5726 21.8177 19.6052 21.8991 19.6282 21.9844C19.7776 22.8976 19.9323 23.809 20.092 24.7188C20.9379 24.7757 21.7843 24.7838 22.6311 24.7432C22.8594 24.7088 22.9896 24.5786 23.0217 24.3525C22.9032 23.8452 22.8462 23.3325 22.8508 22.8145C22.9735 22.6332 23.1444 22.5763 23.3635 22.6436C23.4747 22.7223 23.5479 22.8281 23.5832 22.9609C23.6912 23.4783 23.7563 23.9992 23.7786 24.5234C23.6936 25.0066 23.4251 25.3321 22.9729 25.5H1.09789C0.40649 25.208 0.137935 24.6871 0.292222 23.9375L0.780504 21.1055C1.05913 19.94 1.71831 19.0611 2.75804 18.4688C2.79873 15.0672 2.82315 11.6655 2.83128 8.26367C2.96963 7.7998 3.27074 7.49868 3.73461 7.36035C4.02712 7.33599 4.32009 7.32783 4.61351 7.33594C4.60541 6.86367 4.61351 6.39165 4.63793 5.91992C4.83739 5.43437 5.2036 5.2309 5.73656 5.30957C5.86864 5.0483 6.08021 4.90996 6.37132 4.89453C6.75502 2.72823 8.00829 1.33663 10.1311 0.719727C10.4631 0.644709 10.7886 0.571467 11.1077 0.5ZM11.6936 1.23242C13.058 1.18008 14.295 1.54629 15.4045 2.33105C16.1977 3.00598 16.7022 3.85233 16.9182 4.87012C13.663 4.89453 10.4078 4.90267 7.15257 4.89453C7.47357 3.31755 8.38504 2.2352 9.88695 1.64746C10.4781 1.43015 11.0803 1.2918 11.6936 1.23242ZM6.46898 5.67578H17.553V9.72852C16.1206 9.73667 14.6883 9.72852 13.2561 9.7041C12.4405 9.21606 11.6266 9.21606 10.8147 9.7041C10.6519 9.71223 10.4892 9.72037 10.3264 9.72852C10.1636 9.73666 10.0009 9.7448 9.83812 9.75293C9.53768 9.82446 9.43187 10.0116 9.52074 10.3145C9.56141 10.3877 9.61839 10.4447 9.69164 10.4854C10.0985 10.5179 10.5055 10.5179 10.9123 10.4854C11.2727 10.3416 11.639 10.2195 12.011 10.1191C12.3927 10.1918 12.7589 10.3139 13.1096 10.4854C14.2976 10.5098 15.4858 10.5179 16.6741 10.5098C16.6453 11.5487 16.2953 12.4602 15.6243 13.2441C14.9129 13.9556 14.1724 14.6311 13.4026 15.2705C12.4207 15.7827 11.4604 15.7502 10.5217 15.1729C9.71947 14.5172 8.96263 13.8092 8.25121 13.0488C7.68929 12.2986 7.38822 11.4522 7.34789 10.5098C7.71151 10.5307 8.06962 10.5063 8.4221 10.4365C8.61898 10.2117 8.60272 10.0001 8.37328 9.80176C7.74213 9.7313 7.10736 9.70689 6.46898 9.72852V5.67578ZM5.39476 6.11523H5.68773V9.28906H5.39476V6.11523ZM18.3342 6.11523H18.6272V9.28906H18.3342V6.11523ZM4.0764 8.06836H4.61351C4.60541 8.54062 4.61351 9.01265 4.63793 9.48438C4.83739 9.96992 5.2036 10.1734 5.73656 10.0947C5.92074 10.4147 6.19745 10.553 6.56664 10.5098C6.60345 11.6567 6.96966 12.6821 7.66527 13.5859C8.10472 14.0905 8.57674 14.5625 9.08128 15.002C9.12674 15.5426 9.11044 16.0797 9.03246 16.6133C8.9223 16.87 8.73509 17.0409 8.47093 17.126C6.85741 17.4684 5.24608 17.8183 3.63695 18.1758C3.57999 14.9207 3.57185 11.6655 3.61253 8.41016C3.71441 8.21753 3.86903 8.10356 4.0764 8.06836ZM9.88695 15.6855C10.9303 16.4426 12.0697 16.6135 13.3049 16.1982C13.6091 16.0828 13.8776 15.9119 14.1106 15.6855C14.0677 16.3336 14.2305 16.9195 14.5989 17.4434C14.6903 17.5512 14.7961 17.6407 14.9162 17.7119C12.9795 18.6544 11.0427 18.6544 9.1057 17.7119C9.53553 17.428 9.78783 17.0292 9.86253 16.5156C9.8869 16.2394 9.89505 15.9627 9.88695 15.6855Z" fill="#3E82C2"/>
</g>
</svg>
