<svg width="26" height="26" viewBox="0 0 26 26" fill="none" xmlns="http://www.w3.org/2000/svg">
<path d="M1.79447 0.578705C1.19909 0.739752 0.740349 1.20337 0.584183 1.80851C0.471939 2.22821 0.471939 23.7694 0.584183 24.189C0.745229 24.804 1.19909 25.2578 1.81399 25.4189C2.22393 25.5262 10.4958 25.5262 10.7057 25.4237C10.8423 25.3505 10.9546 25.1651 10.9546 24.9992C10.9546 24.8625 10.8277 24.6331 10.7252 24.5843C10.6764 24.5599 8.69017 24.5307 6.30864 24.516C2.0336 24.4916 1.97992 24.4916 1.84815 24.3891C1.77495 24.3355 1.66758 24.2281 1.6139 24.1549C1.51142 24.0231 1.51142 23.989 1.49678 18.7525L1.48702 13.4868H7.86542L14.2487 13.4917L16.64 18.9526C17.9576 21.9588 19.0362 24.4379 19.0459 24.4672C19.0557 24.4965 18.2212 24.516 16.7864 24.5258L14.5074 24.5404L14.3658 24.7015C14.1804 24.9064 14.1804 25.1016 14.3658 25.3066L14.5074 25.4677L19.207 25.4823C23.238 25.4921 23.9456 25.4823 24.1848 25.4189C24.8046 25.2627 25.2633 24.804 25.4243 24.189C25.5366 23.7694 25.5366 2.22821 25.4243 1.80851C25.2633 1.19361 24.8094 0.739752 24.1945 0.578705C23.7846 0.47134 2.18976 0.476221 1.79447 0.578705ZM10.3397 1.5889C10.3202 1.65235 9.77358 3.5117 9.12451 5.7273L7.94351 9.75346L4.71282 9.7681L1.48702 9.77786V5.95179C1.48702 3.35553 1.50166 2.07692 1.5407 1.9842C1.60902 1.80363 1.77007 1.62794 1.95064 1.54986C2.06776 1.49618 2.89739 1.48642 6.23544 1.48154H10.3738L10.3397 1.5889ZM12.8579 1.6133C12.5602 2.52102 10.369 10.1585 10.369 10.2854C10.369 10.3928 10.4129 10.505 10.4861 10.5928L10.6032 10.7295L13.7216 10.7441C15.4346 10.749 16.8889 10.7441 16.9475 10.7295C17.0109 10.7149 17.1183 10.6416 17.1817 10.5733C17.3915 10.3488 17.3135 9.98282 17.0207 9.83154C16.9475 9.7925 16.1032 9.77786 14.1999 9.77786H11.4914L11.5158 9.66561C11.5353 9.60705 12.077 7.7477 12.7261 5.53209L13.9071 1.50594H18.9678C23.9993 1.50594 24.0286 1.50594 24.1604 1.60843C24.2336 1.66211 24.3409 1.76947 24.3946 1.84267C24.4971 1.97444 24.4971 2.02324 24.5117 5.87859L24.5215 9.77786H22.6963C21.486 9.77786 20.8272 9.79738 20.7491 9.83154C20.4563 9.9633 20.4026 10.3781 20.6466 10.6124L20.7735 10.7295L22.6475 10.7441L24.5215 10.7588V11.6323V12.5108H20.8614C16.8401 12.5108 16.9865 12.501 16.8596 12.8036C16.8254 12.8817 16.8108 13.0085 16.8254 13.0866C16.8401 13.1598 17.9625 15.7512 19.3192 18.8452C20.6759 21.9393 21.7886 24.4819 21.7886 24.4965C21.7886 24.5063 21.4177 24.516 20.9687 24.516H20.144L20.0854 24.3794C20.0513 24.3062 18.8898 21.666 17.5087 18.5134C15.5761 14.0919 14.9661 12.7499 14.8539 12.6425L14.7123 12.5108H8.09967H1.48702V11.6323V10.7539H4.90315C8.68529 10.7539 8.59257 10.7588 8.7341 10.4513C8.77314 10.3635 9.37828 8.3382 10.0761 5.94691C10.774 3.55562 11.3548 1.57426 11.3694 1.5401C11.384 1.49618 11.5841 1.48154 12.1453 1.48154H12.9018L12.8579 1.6133ZM24.5117 18.7525C24.4971 23.989 24.4971 24.0231 24.3946 24.1549C24.175 24.4526 24.0725 24.4916 23.4527 24.5063L22.8818 24.5258L22.8183 24.3843C22.7842 24.3111 21.7008 21.8417 20.4124 18.9038C19.124 15.9659 18.0601 13.5454 18.0504 13.5258C18.0357 13.5014 19.4851 13.4868 21.2762 13.4868H24.5215L24.5117 18.7525Z" fill="#3E82C2"/>
<path d="M18.6898 9.82178C18.2994 9.98283 18.3238 10.5831 18.7338 10.7197C19.0217 10.8173 19.3487 10.5831 19.3487 10.2805C19.3487 10.0609 19.2804 9.94378 19.1047 9.85106C18.9485 9.77298 18.8363 9.76322 18.6898 9.82178Z" fill="#3E82C2"/>
<path d="M7.56269 16.7565C3.94159 17.8594 4.06847 17.8204 3.93671 17.9424C3.59021 18.2596 3.60973 18.855 3.96599 19.0893C4.03431 19.1332 4.68826 19.4601 5.41052 19.8164L6.73305 20.4557L7.44068 21.8905C8.14343 23.3057 8.14831 23.3204 8.36792 23.4326C8.71929 23.6132 9.05602 23.5253 9.30979 23.1935C9.44156 23.0129 11.296 16.8834 11.296 16.615C11.296 16.4832 11.257 16.3417 11.1935 16.2343C11.0764 16.0489 10.7787 15.8781 10.5786 15.883C10.5054 15.883 9.14875 16.2783 7.56269 16.7565ZM8.11415 18.4011L7.00634 19.5089L6.06447 19.0502C5.54717 18.7964 5.10795 18.5768 5.08843 18.5622C5.05915 18.5427 9.0365 17.308 9.17315 17.2982C9.19755 17.2933 8.72417 17.7911 8.11415 18.4011ZM9.29515 20.0555C8.97306 21.1292 8.69489 22.0369 8.67537 22.0759C8.66073 22.1198 8.46064 21.7685 8.17271 21.1731L7.69445 20.1971L8.77785 19.1088C9.36836 18.5134 9.86125 18.0449 9.87101 18.0693C9.87589 18.0888 9.61724 18.9868 9.29515 20.0555Z" fill="#3E82C2"/>
<path d="M12.4918 24.5599C12.1794 24.6917 12.0965 25.0968 12.3356 25.331C12.6284 25.6287 13.1262 25.4237 13.1262 25.004C13.1262 24.6819 12.7748 24.4379 12.4918 24.5599Z" fill="#3E82C2"/>
</svg>
