<svg width="26" height="26" viewBox="0 0 26 26" fill="none" xmlns="http://www.w3.org/2000/svg">
<path d="M2.50803 1.38021C1.66428 1.86458 0.940325 2.30208 0.903866 2.35417C0.820533 2.46875 0.804908 5.96875 0.888241 6.125C0.919491 6.17708 1.57574 6.58333 2.34657 7.02083L3.75282 7.81771V13V18.1823L2.41428 18.9375C1.6747 19.3542 1.01845 19.7448 0.95595 19.8073L0.836158 19.9219V21.724C0.836158 22.8177 0.856991 23.5677 0.888241 23.625C0.95595 23.75 4.01845 25.5 4.16949 25.5C4.32053 25.5 7.38303 23.75 7.45074 23.625C7.48199 23.5729 7.50282 23.224 7.50282 22.849V22.1667H13.3362H19.1695V22.849C19.1695 23.224 19.1903 23.5729 19.2216 23.625C19.2893 23.75 22.3518 25.5 22.5028 25.5C22.6539 25.5 25.7164 23.75 25.7841 23.625C25.8153 23.5677 25.8362 22.8177 25.8362 21.724V19.9219L25.7164 19.8073C25.6539 19.7448 24.9976 19.3542 24.2632 18.9375L22.9247 18.1823V13V7.81771L24.2632 7.0625C24.9976 6.64583 25.6539 6.25521 25.7164 6.19271L25.8362 6.07812V4.27604C25.8362 3.18229 25.8153 2.43229 25.7841 2.375C25.7164 2.25 22.6539 0.5 22.5028 0.5C22.3518 0.5 19.2893 2.25 19.2216 2.375C19.1903 2.42708 19.1695 2.77604 19.1695 3.15104V3.83333H13.3362H7.50282V3.15104C7.50282 2.77604 7.48199 2.42708 7.45074 2.375C7.38303 2.24479 4.32053 0.5 4.16428 0.5C4.09657 0.5 3.35178 0.895832 2.50803 1.38021ZM5.20074 1.97917C5.75282 2.29688 6.20074 2.56771 6.20074 2.58333C6.20074 2.59896 5.74762 2.875 5.19032 3.19271L4.1747 3.77083L3.15907 3.19271C2.59657 2.875 2.13824 2.59896 2.13824 2.58333C2.13824 2.54688 4.12782 1.39583 4.1747 1.40625C4.19032 1.40625 4.65387 1.66667 5.20074 1.97917ZM23.5341 1.97917C24.0862 2.29688 24.5341 2.56771 24.5341 2.58333C24.5341 2.59896 24.081 2.875 23.5237 3.19271L22.508 3.77083L21.4924 3.19271C20.9299 2.875 20.4716 2.59896 20.4716 2.58333C20.4716 2.54688 22.4612 1.39583 22.508 1.40625C22.5237 1.40625 22.9872 1.66667 23.5341 1.97917ZM2.97678 4.04688C3.56532 4.39062 4.10178 4.66667 4.16949 4.66667C4.26324 4.66667 5.17991 4.16667 6.63303 3.32812C6.65387 3.31771 6.66949 3.83854 6.66949 4.49479V5.68229L5.41949 6.39583L4.1747 7.10417L2.9247 6.39583L1.66949 5.68229V4.49479V3.30729L1.78928 3.36979C1.85178 3.40625 2.38824 3.70833 2.97678 4.04688ZM21.3101 4.04688C21.8987 4.39062 22.4351 4.66667 22.5028 4.66667C22.5966 4.66667 23.5132 4.16667 24.9664 3.32812C24.9872 3.31771 25.0028 3.83854 25.0028 4.49479V5.68229L23.7528 6.39583L22.508 7.10417L21.258 6.39583L20.0028 5.68229V4.49479V3.30729L20.1226 3.36979C20.1851 3.40625 20.7216 3.70833 21.3101 4.04688ZM19.1695 5.34896C19.1695 5.72396 19.1955 6.07292 19.2216 6.125C19.2528 6.17708 19.9091 6.58333 20.6799 7.02083L22.0862 7.81771V13V18.1823L20.7476 18.9375C20.008 19.3542 19.3518 19.7448 19.2893 19.8073C19.1747 19.9167 19.1695 19.9635 19.1695 20.6302V21.3333H13.3362H7.50282V20.6302C7.50282 19.9635 7.49762 19.9167 7.38303 19.8073C7.32053 19.7448 6.66428 19.3542 5.92991 18.9375L4.59137 18.1823V13V7.81771L5.92991 7.0625C6.66428 6.64583 7.32053 6.25521 7.38303 6.19271C7.49762 6.08333 7.50282 6.03646 7.50282 5.36979V4.66667H13.3362H19.1695V5.34896ZM5.20074 19.4792C5.75282 19.7969 6.20074 20.0677 6.20074 20.0833C6.20074 20.099 5.74762 20.375 5.19032 20.6927L4.1747 21.2708L3.15907 20.6927C2.59657 20.375 2.13824 20.099 2.13824 20.0833C2.13824 20.0469 4.12782 18.8958 4.1747 18.9062C4.19032 18.9062 4.65387 19.1667 5.20074 19.4792ZM23.5341 19.4792C24.0862 19.7969 24.5341 20.0677 24.5341 20.0833C24.5341 20.099 24.081 20.375 23.5237 20.6927L22.508 21.2708L21.4924 20.6927C20.9299 20.375 20.4716 20.099 20.4716 20.0833C20.4716 20.0469 22.4612 18.8958 22.508 18.9062C22.5237 18.9062 22.9872 19.1667 23.5341 19.4792ZM2.97678 21.5469C3.56532 21.8906 4.10178 22.1667 4.16949 22.1667C4.26324 22.1667 5.17991 21.6667 6.63303 20.8281C6.65387 20.8177 6.66949 21.3385 6.66949 21.9948V23.1823L5.41949 23.8958L4.1747 24.6042L2.9247 23.8958L1.66949 23.1823V21.9948V20.8073L1.78928 20.8698C1.85178 20.9062 2.38824 21.2083 2.97678 21.5469ZM21.3101 21.5469C21.8987 21.8906 22.4351 22.1667 22.5028 22.1667C22.5966 22.1667 23.5132 21.6667 24.9664 20.8281C24.9872 20.8177 25.0028 21.3385 25.0028 21.9948V23.1823L23.7528 23.8958L22.508 24.6042L21.258 23.8958L20.0028 23.1823V21.9948V20.8073L20.1226 20.8698C20.1851 20.9062 20.7216 21.2083 21.3101 21.5469Z" fill="#3E82C2"/>
<path d="M12.7116 5.6198C12.5241 5.68751 11.2845 6.34376 9.95117 7.08334C7.45117 8.46355 7.22721 8.61459 6.95638 9.07813C6.67513 9.54688 6.66992 9.64584 6.66992 13C6.66992 16.3646 6.67513 16.4479 6.95638 16.9323C7.22201 17.3802 7.49805 17.5677 9.95638 18.9219C11.2585 19.6458 12.446 20.2917 12.5866 20.3542C12.7949 20.4479 12.9355 20.474 13.3366 20.474C13.7637 20.474 13.873 20.4531 14.1283 20.3333C14.7116 20.0625 16.1751 19.2396 16.2689 19.1354C16.4928 18.875 16.2533 18.4271 15.9251 18.4844C15.8314 18.5 15.3001 18.7656 14.7428 19.0781L13.7272 19.6406H13.3366H12.946L10.5085 18.2865C8.93034 17.4115 7.99805 16.8646 7.86784 16.7344C7.49284 16.3646 7.49805 16.4271 7.51367 12.8906L7.5293 9.7448L7.67513 9.4948C7.77409 9.33334 7.91992 9.1823 8.0918 9.07293C8.55013 8.78126 12.7585 6.47918 12.9616 6.40626C13.2064 6.31772 13.4668 6.31772 13.7168 6.40626C14.097 6.54168 18.571 9.06251 18.7897 9.26563C19.1751 9.6198 19.1699 9.55209 19.1699 13.0052C19.1699 16.3021 19.1699 16.3021 18.8887 16.6667C18.821 16.7604 18.4616 17 18.0449 17.2396C17.196 17.724 17.0866 17.8125 17.0866 18.0052C17.0866 18.2188 17.1335 18.3073 17.3053 18.3958C17.498 18.4948 17.5449 18.4792 18.3105 18.0625C19.1283 17.6146 19.3783 17.4323 19.6074 17.099C20.0085 16.5208 20.0033 16.5573 20.0033 13.0313C20.0033 9.63543 19.998 9.55209 19.7168 9.06772C19.4512 8.61459 19.1751 8.4323 16.6439 7.02605C15.3001 6.27605 14.071 5.63022 13.9147 5.58334C13.5189 5.46876 13.1126 5.47918 12.7116 5.6198Z" fill="#3E82C2"/>
<path d="M8.46615 11.0469L8.33594 11.1719V13V14.8281L8.46615 14.9531C8.61719 15.1094 8.85156 15.1198 9.01823 14.9844C9.14323 14.8854 9.14323 14.8646 9.16927 13.75L9.19531 12.6146L10.0964 13.8177C10.5911 14.4792 11.0339 15.0365 11.0755 15.0521C11.2422 15.1146 11.4193 15.0781 11.5391 14.9531L11.6693 14.8281V13V11.1719L11.5391 11.0469C11.388 10.8906 11.1536 10.8802 10.987 11.0156C10.862 11.1146 10.862 11.1354 10.8359 12.25L10.8099 13.3854L9.90885 12.1823C9.41406 11.5208 8.97135 10.9635 8.92969 10.9479C8.76302 10.8854 8.58594 10.9219 8.46615 11.0469Z" fill="#3E82C2"/>
<path d="M12.6331 11.0469L12.5029 11.1719V13V14.8281L12.6331 14.9531C12.7113 15.0365 12.8206 15.0833 12.9196 15.0833C13.0186 15.0833 13.1279 15.0365 13.2061 14.9531C13.3311 14.8333 13.3363 14.8021 13.3363 14.1198V13.4167H14.0394C14.7217 13.4167 14.7529 13.4115 14.8727 13.2865C15.0446 13.1198 15.0446 12.8802 14.8727 12.7136C14.7529 12.5886 14.7217 12.5833 14.0394 12.5833H13.3363V12.1667V11.75H14.0394C14.7217 11.75 14.7529 11.7448 14.8727 11.6198C14.9561 11.5417 15.0029 11.4323 15.0029 11.3333C15.0029 11.2344 14.9561 11.125 14.8727 11.0469C14.7477 10.9167 14.7373 10.9167 13.7529 10.9167C12.7686 10.9167 12.7581 10.9167 12.6331 11.0469Z" fill="#3E82C2"/>
<path d="M15.9661 11.0469C15.8828 11.125 15.8359 11.2344 15.8359 11.3333C15.8359 11.599 16.0339 11.75 16.3828 11.75H16.6693V13.2865V14.8281L16.7995 14.9531C16.8776 15.0365 16.987 15.0833 17.0859 15.0833C17.1849 15.0833 17.2943 15.0365 17.3724 14.9531L17.5026 14.8281V13.2865V11.75H17.7891C18.138 11.75 18.3359 11.599 18.3359 11.3333C18.3359 11.2344 18.2891 11.125 18.2057 11.0469C18.0807 10.9167 18.0703 10.9167 17.0859 10.9167C16.1016 10.9167 16.0911 10.9167 15.9661 11.0469Z" fill="#3E82C2"/>
<path d="M9.16992 2.16667V3H10.0033H10.8366V2.16667V1.33333H10.0033H9.16992V2.16667Z" fill="#3E82C2"/>
<path d="M15.4199 23.8333V24.6667H16.2533H17.0866V23.8333V23H16.2533H15.4199V23.8333Z" fill="#3E82C2"/>
</svg>
