<svg width="25" height="26" viewBox="0 0 25 26" fill="none" xmlns="http://www.w3.org/2000/svg">
<path d="M12.4578 0.59765C12.3211 0.724602 12.2821 0.998038 12.3016 1.72069C12.3211 2.30174 12.326 2.31639 12.4578 2.43358C12.5311 2.49706 12.6385 2.55077 12.6873 2.55077C12.7362 2.55077 12.8436 2.49706 12.9168 2.43358C13.0487 2.31639 13.0535 2.30174 13.0731 1.72069C13.0975 0.778313 13.0096 0.499994 12.6873 0.499994C12.619 0.499994 12.5116 0.543939 12.4578 0.59765Z" fill="#3E82C2"/>
<path d="M8.20508 2.37011C8.13672 2.43847 8.09766 2.54589 8.09766 2.64843C8.09766 2.79003 8.16602 2.87792 8.64941 3.3662C9.08398 3.80077 9.23535 3.91795 9.33789 3.91795C9.52831 3.91795 9.63574 3.84471 9.70409 3.6787C9.79198 3.47362 9.70898 3.34667 9.10839 2.75585C8.54687 2.20898 8.41015 2.15038 8.20508 2.37011Z" fill="#3E82C2"/>
<path d="M16.2615 2.75585C15.7 3.3076 15.6023 3.46874 15.6755 3.68358C15.7341 3.84471 15.8464 3.91795 16.0369 3.91795C16.1394 3.91795 16.2908 3.80077 16.7253 3.3662C17.2185 2.86815 17.2771 2.79003 17.2771 2.63866C17.2771 2.43359 17.1111 2.2578 16.9109 2.2578C16.8035 2.2578 16.6668 2.36034 16.2615 2.75585Z" fill="#3E82C2"/>
<path d="M11.8819 3.49803C11.1641 3.70311 10.6368 4.01561 10.1583 4.5283C9.26958 5.48045 8.99127 6.85739 9.44536 8.06344C9.50884 8.23434 9.56255 8.39059 9.56255 8.415C9.56255 8.43942 8.79107 8.45895 7.81451 8.45895H6.06159L5.95905 8.57125C5.78327 8.7568 5.82233 9.00094 6.05183 9.11813C6.15436 9.17183 6.36921 9.19137 6.90143 9.19137C7.29205 9.19137 7.60944 9.20113 7.60944 9.2109C7.60944 9.24019 7.3653 10.9492 7.336 11.1298L7.31159 11.291H4.9239C3.03914 11.291 2.53133 11.2763 2.53133 11.2275C2.53622 11.1982 2.60946 10.7783 2.69735 10.2998C2.8243 9.6064 2.87801 9.40621 2.9659 9.3232C3.06356 9.22555 3.13192 9.21578 3.87898 9.19137C4.65535 9.16695 4.69441 9.16207 4.7823 9.04977C4.90437 8.90328 4.89949 8.67867 4.77742 8.5566C4.68953 8.46871 4.61628 8.45895 3.83992 8.45895C3.12703 8.45895 2.9659 8.4736 2.79989 8.55172C2.5411 8.66891 2.21883 9.04 2.14559 9.29879C2.09676 9.4941 0.939543 15.8954 0.651459 17.5898C0.568451 18.0585 0.529389 18.4394 0.544037 18.5956C0.587982 19.0253 0.822356 19.3671 1.21298 19.5722C1.37411 19.6601 1.62313 19.665 6.21784 19.6894L11.0518 19.7138L11.0665 20.3583L11.0811 21.0077H10.6709C10.0997 21.0077 9.78716 21.1103 9.50884 21.3935C9.2354 21.662 9.1231 21.9843 9.1231 22.4774V22.8046L8.62506 22.8241C8.18072 22.8388 8.09283 22.8583 7.86334 22.9853C7.33112 23.2782 7.16998 23.6249 7.16998 24.494C7.17487 25.1386 7.20416 25.2509 7.44342 25.4071C7.58014 25.495 7.72662 25.4999 12.6778 25.4999C18.2686 25.4999 17.9707 25.5145 18.1319 25.2069C18.2344 25.0116 18.2344 23.9813 18.1319 23.6933C18.0293 23.3954 17.8096 23.1464 17.5117 22.9853C17.2822 22.8583 17.1944 22.8388 16.7549 22.8241L16.252 22.8046V22.4774C16.252 21.9843 16.1397 21.662 15.8662 21.3935C15.5879 21.1103 15.2754 21.0077 14.7041 21.0077H14.2989V20.3485V19.6894H15.7588H17.2237L17.3213 19.5624C17.4531 19.3915 17.4483 19.2841 17.3067 19.1181L17.1895 18.9814L9.38189 18.9569C3.40047 18.9374 1.55477 18.9179 1.47665 18.8739C1.2911 18.7665 1.24228 18.5614 1.30575 18.1464C1.33505 17.9413 1.37411 17.7558 1.38876 17.7314C1.42294 17.6728 23.9521 17.6728 23.9863 17.7314C24.001 17.7558 24.04 17.9413 24.0693 18.1464C24.1328 18.5614 24.084 18.7665 23.8984 18.8739C23.8252 18.9179 23.1025 18.9374 21.1982 18.9569C18.6055 18.9814 18.5957 18.9814 18.4932 19.0888C18.3613 19.2157 18.3565 19.4648 18.4785 19.5966C18.5615 19.6894 18.6494 19.6943 21.2764 19.6796C23.8154 19.665 24.001 19.6601 24.1621 19.5722C24.5381 19.3769 24.7724 19.0448 24.8262 18.6493C24.8652 18.371 24.8213 18.0878 23.9668 13.332C23.4687 10.5732 23.21 9.23531 23.1416 9.10836C23.0928 9.00582 22.9756 8.85445 22.8828 8.76656C22.5508 8.44918 22.6924 8.45895 19.084 8.45895C17.2871 8.45895 15.8125 8.4443 15.8125 8.42477C15.8125 8.41012 15.8662 8.23434 15.9346 8.04391C16.5645 6.20798 15.666 4.29393 13.8496 3.61522C13.4834 3.4785 13.3809 3.45897 12.7852 3.44432C12.3262 3.43456 12.0528 3.44921 11.8819 3.49803ZM13.3955 4.23533C14.128 4.42576 14.792 4.9824 15.1289 5.68064C15.5098 6.4863 15.5098 7.27731 15.1289 8.05368L14.9287 8.45895H12.6875H10.4463L10.2461 8.05368C9.86528 7.27731 9.86528 6.4863 10.2461 5.68064C10.5782 4.99217 11.2032 4.45994 11.9307 4.25487C12.3067 4.14745 13.0147 4.13768 13.3955 4.23533ZM12.2969 10.2412V11.291H10.1729H8.05377L8.0733 11.1542C8.11236 10.9394 8.34185 9.28414 8.34185 9.23531C8.34185 9.2109 9.20123 9.19137 10.3194 9.19137H12.2969V10.2412ZM17.0332 9.23043C17.0332 9.27926 17.2676 10.9882 17.3018 11.1542L17.3262 11.291H15.2022H13.0782V10.2412V9.19137H15.0557C16.1446 9.19137 17.0332 9.20601 17.0332 9.23043ZM22.3848 9.30367C22.5019 9.40621 22.5312 9.50387 22.6777 10.2949C22.7656 10.7734 22.8389 11.1982 22.8437 11.2275C22.8437 11.2763 22.3359 11.291 20.4512 11.291H18.0635L18.0391 11.1298C18.0098 10.9492 17.7656 9.24019 17.7656 9.2109C17.7656 9.20113 18.7764 9.19137 20.0068 9.19137H22.2529L22.3848 9.30367ZM7.19928 12.1796C7.18463 12.2675 7.12604 12.6679 7.07233 13.0732C7.01862 13.4736 6.96002 13.8788 6.94538 13.9619L6.92096 14.123H4.46492H2.00887L2.17001 13.2294C2.2579 12.7412 2.34579 12.2675 2.36044 12.1796L2.38973 12.0234H4.80671H7.2237L7.19928 12.1796ZM12.2969 13.0732V14.123H9.97759H7.66315L7.68268 13.9863C7.71197 13.8349 7.95123 12.0917 7.95123 12.0478C7.95123 12.0332 8.92779 12.0234 10.1241 12.0234H12.2969V13.0732ZM17.4238 12.0478C17.4238 12.0917 17.6631 13.8349 17.6924 13.9863L17.7168 14.123H15.3975H13.0782V13.0732V12.0234H15.251C16.4473 12.0234 17.4238 12.0332 17.4238 12.0478ZM23.0146 12.1796C23.0293 12.2675 23.1172 12.7412 23.2051 13.2294L23.3662 14.123H20.9102H18.4541L18.4297 13.9619C18.4151 13.8788 18.3565 13.4736 18.3027 13.0732C18.249 12.6679 18.1904 12.2675 18.1758 12.1796L18.1514 12.0234H20.5684H22.9853L23.0146 12.1796ZM6.80378 15.0361C6.71588 15.6269 6.53522 16.9159 6.53522 16.9355C6.53522 16.9452 5.40241 16.955 4.0157 16.955H1.49618L1.52548 16.8183C1.54013 16.745 1.62313 16.3007 1.70126 15.832C1.78427 15.3632 1.86239 14.9482 1.87216 14.914C1.8868 14.8701 2.42879 14.8554 4.36238 14.8554H6.82819L6.80378 15.0361ZM12.2969 15.9052V16.955H9.78228H7.27252L7.29205 16.8183C7.32135 16.6669 7.56061 14.9238 7.56061 14.8798C7.56061 14.8652 8.62506 14.8554 9.92876 14.8554H12.2969V15.9052ZM17.8145 14.8798C17.8145 14.9238 18.0537 16.6669 18.083 16.8183L18.1074 16.955H15.5928H13.0782V15.9052V14.8554H15.4463C16.75 14.8554 17.8145 14.8652 17.8145 14.8798ZM23.6592 15.7587C23.7422 16.2421 23.8301 16.7109 23.8447 16.7939L23.874 16.955H21.3545C19.9727 16.955 18.8399 16.9452 18.8399 16.9355C18.8399 16.9159 18.6592 15.622 18.5713 15.0361L18.5469 14.8554L21.0225 14.8652L23.5029 14.8798L23.6592 15.7587ZM13.5664 20.3485V21.0077H12.6875H11.8086V20.3485V19.6894H12.6875H13.5664V20.3485ZM15.2266 21.8134C15.4317 21.9208 15.5196 22.121 15.5196 22.497V22.8144H12.6875H9.85552V22.497C9.85552 22.1259 9.93853 21.9208 10.1387 21.8183C10.3389 21.706 15.0166 21.706 15.2266 21.8134ZM17.1504 23.62C17.3946 23.7372 17.4727 23.9179 17.4727 24.372V24.7675H12.6875H7.9024V24.372C7.9024 23.9227 7.98053 23.7421 8.2149 23.6249C8.44439 23.5126 16.916 23.5077 17.1504 23.62Z" fill="#3E82C2"/>
<path d="M6.44727 6.60349C6.29102 6.74997 6.30079 7.00388 6.4668 7.13571C6.58399 7.22849 6.66211 7.23825 7.34082 7.23825C8.01953 7.23825 8.09765 7.22849 8.21484 7.13571C8.37597 7.00876 8.39062 6.74997 8.24414 6.60349C8.15625 6.5156 8.08301 6.50583 7.35059 6.50583C6.61817 6.50583 6.54493 6.5156 6.44727 6.60349Z" fill="#3E82C2"/>
<path d="M17.1306 6.60349C16.9841 6.74997 16.9988 7.00876 17.1599 7.13571C17.2771 7.22849 17.3552 7.23825 18.0339 7.23825C18.7126 7.23825 18.7907 7.22849 18.9079 7.13571C19.0691 7.00876 19.0837 6.74997 18.9372 6.60349C18.8493 6.5156 18.7761 6.50583 18.0339 6.50583C17.2917 6.50583 17.2185 6.5156 17.1306 6.60349Z" fill="#3E82C2"/>
</svg>
