<svg width="23" height="26" viewBox="0 0 23 26" fill="none" xmlns="http://www.w3.org/2000/svg">
<path d="M10.8541 0.620991C10.2961 0.926973 0.936623 6.33867 0.762633 6.45266C0.660639 6.52465 0.528646 6.66265 0.46265 6.76464C0.360656 6.93863 0.354656 7.23261 0.336657 12.7943C0.324658 16.7541 0.342657 18.74 0.384654 18.9499C0.426652 19.1479 0.504647 19.3099 0.612641 19.4119C0.786631 19.5799 10.6501 25.2916 11.016 25.4416C11.148 25.4956 11.316 25.5136 11.436 25.4896C11.67 25.4476 21.7554 19.6399 21.9954 19.4119C22.1034 19.3099 22.1814 19.1479 22.2234 18.9499C22.2654 18.74 22.2834 16.7661 22.2714 12.7883L22.2534 6.93863L22.1034 6.71664C21.9894 6.54865 21.6234 6.30867 20.4535 5.63671C19.6316 5.16273 18.8936 4.75476 18.8216 4.73076C18.6116 4.66476 18.2756 4.83875 18.1676 5.07874C18.0776 5.26473 18.0716 5.31272 18.1496 5.51071C18.2276 5.7087 18.3356 5.7927 19.1936 6.29067C20.5375 7.07062 20.4595 6.96263 19.9075 7.25661C17.4237 8.55254 11.31 11.7144 11.28 11.7144C11.256 11.7144 9.21615 10.6584 6.73829 9.36249C2.80252 7.30461 2.24455 6.99863 2.34054 6.93263C2.39454 6.89063 4.44042 5.7087 6.87628 4.29878L11.304 1.74293L12.564 2.46889C13.6079 3.06885 13.8659 3.19485 14.0639 3.19485C14.3999 3.19485 14.6038 2.97886 14.6038 2.62488C14.6038 2.46889 14.5618 2.31889 14.5018 2.2469C14.4418 2.1809 13.7759 1.76693 13.0139 1.32895C11.466 0.441002 11.292 0.381004 10.8541 0.620991ZM6.16832 10.4244L10.6441 12.7643V18.302C10.6441 21.7458 10.6201 23.8337 10.5901 23.8217C10.5541 23.8157 8.52019 22.6397 6.06033 21.2238L1.58459 18.644V13.3463C1.58459 10.2204 1.60858 8.05457 1.63858 8.06657C1.66858 8.07257 3.70846 9.1345 6.16832 10.4244ZM21.0235 13.3463V18.644L16.8117 21.0738C14.4958 22.4117 12.444 23.5937 12.252 23.7017L11.904 23.8997V18.332V12.7643L16.4217 10.4124C18.8996 9.12251 20.9515 8.06057 20.9815 8.06057C21.0055 8.05457 21.0235 10.4364 21.0235 13.3463Z" fill="#3E82C2"/>
<path d="M15.9782 3.54283C15.5402 3.93881 15.9302 4.69476 16.5001 4.55077C16.9501 4.43678 17.1001 3.87881 16.7701 3.54883C16.5301 3.31484 16.2361 3.30884 15.9782 3.54283Z" fill="#3E82C2"/>
</svg>
